<svg width="70" height="70" viewBox="0 0 70 70" fill="none" xmlns="http://www.w3.org/2000/svg">
<circle cx="35" cy="35" r="35" fill="#4B5565"/>
<path d="M34.9999 29.5731V36.8094M34.9999 44.0457H35.018M32.4949 20.3319L17.6155 46.0327C16.7902 47.4582 16.3775 48.1709 16.4385 48.7559C16.4917 49.2662 16.759 49.7298 17.174 50.0315C17.6497 50.3774 18.4733 50.3774 20.1205 50.3774H49.8793C51.5265 50.3774 52.3501 50.3774 52.8258 50.0315C53.2407 49.7298 53.5081 49.2662 53.5613 48.7559C53.6222 48.1709 53.2096 47.4582 52.3843 46.0326L37.5049 20.3318C36.6825 18.9114 36.2714 18.2012 35.7349 17.9627C35.267 17.7546 34.7328 17.7546 34.2649 17.9627C33.7284 18.2012 33.3173 18.9114 32.4949 20.3319Z" stroke="#FCFCFD" stroke-width="3" stroke-linecap="round" stroke-linejoin="round"/>
</svg>
