<svg width="20" height="20" viewBox="0 0 20 20" fill="none" xmlns="http://www.w3.org/2000/svg">
<path d="M13.7501 3.33337L17.9167 7.50004M17.9167 3.33337L13.7501 7.50004M13.3334 17.5V16.5C13.3334 15.0999 13.3334 14.3998 13.0609 13.8651C12.8212 13.3947 12.4388 13.0122 11.9684 12.7725C11.4336 12.5 10.7335 12.5 9.33341 12.5H5.66675C4.26662 12.5 3.56655 12.5 3.03177 12.7725C2.56137 13.0122 2.17892 13.3947 1.93923 13.8651C1.66675 14.3998 1.66675 15.0999 1.66675 16.5V17.5M10.4167 6.25004C10.4167 7.86087 9.11091 9.16671 7.50008 9.16671C5.88925 9.16671 4.58341 7.86087 4.58341 6.25004C4.58341 4.63921 5.88925 3.33337 7.50008 3.33337C9.11091 3.33337 10.4167 4.63921 10.4167 6.25004Z" stroke="#D81919" stroke-width="2" stroke-linecap="round" stroke-linejoin="round"/>
</svg>
